<svg id="Ebene_1" data-name="Ebene 1" xmlns="http://www.w3.org/2000/svg" xmlns:xlink="http://www.w3.org/1999/xlink" viewBox="0 0 922 335.84"><defs><linearGradient id="Neues_Verlaufsfeld_2" x1="293.96" y1="468.23" x2="293.96" y2="132.39" gradientUnits="userSpaceOnUse"><stop offset="0" stop-color="#b929f1"/><stop offset="0.08" stop-color="#af29f8"/><stop offset="0.19" stop-color="#a829fe"/><stop offset="0.49" stop-color="#a629ff"/><stop offset="0.65" stop-color="#a327fc"/><stop offset="0.76" stop-color="#9a22f4"/><stop offset="0.85" stop-color="#8b19e6"/><stop offset="0.94" stop-color="#750cd2"/><stop offset="1" stop-color="#6100bf"/></linearGradient><linearGradient id="Neues_Verlaufsfeld_2-2" x1="635.44" y1="468.23" x2="635.44" y2="137.93" xlink:href="#Neues_Verlaufsfeld_2"/><linearGradient id="Neues_Verlaufsfeld_2-3" x1="931.96" y1="468.23" x2="931.96" y2="132.39" xlink:href="#Neues_Verlaufsfeld_2"/></defs><path d="M448.92,330.66v62.25q0,12.4-2.44,19.83a31.51,31.51,0,0,1-9,13.4,84.55,84.55,0,0,1-16.73,11.52q-29.46,15.94-56.71,23.26t-59.37,7.31q-37.44,0-68.23-11.52T184,423.26q-21.72-21.93-33.34-53.17T139,300.31q0-37.87,11.3-69.34t33.23-53.39q21.93-21.93,53.39-33.56t71.33-11.63q32.78,0,58,8.75t41,22Q423,176.47,431,191.32t8,26.36a28.19,28.19,0,0,1-9.19,21.16,30.87,30.87,0,0,1-22.05,8.75,29.62,29.62,0,0,1-13.62-3.33,30.89,30.89,0,0,1-11-9.3q-12.18-19.05-20.6-28.8t-22.7-16.39q-14.29-6.65-36.45-6.65-22.81,0-40.76,7.87a84.15,84.15,0,0,0-30.68,22.81q-12.74,15-19.49,36.67t-6.76,48.07q0,57.15,26.25,87.94t73.22,30.8a149.48,149.48,0,0,0,42.86-6,217.3,217.3,0,0,0,40.65-17.06V341.51h-51q-18.39,0-27.8-5.53t-9.42-18.83a23.11,23.11,0,0,1,7.87-17.95q7.86-7.08,21.38-7.09h74.65a95.43,95.43,0,0,1,23.26,2.44,26.29,26.29,0,0,1,15.4,10.85Q448.92,313.83,448.92,330.66Z" transform="translate(-139 -132.39)" style="fill:url(#Neues_Verlaufsfeld_2)"/><path d="M637.66,336.2H577.4v91.93q0,19.72-9.3,29.91a30.44,30.44,0,0,1-23.48,10.19q-14.85,0-23.93-10.08t-9.08-29.58V178.25q0-21.7,10-31t31.68-9.3h84.4q37.44,0,57.6,5.76a85.65,85.65,0,0,1,34.44,18.39,82.92,82.92,0,0,1,22,31.45q7.53,18.61,7.53,41.87,0,49.64-30.57,75.21T637.66,336.2ZM621.71,187.33H577.4v99.24h44.31q23.26,0,38.88-4.87t23.81-15.95q8.21-11.07,8.2-29,0-21.48-12.63-35Q665.8,187.33,621.71,187.33Z" transform="translate(-139 -132.39)" style="fill:url(#Neues_Verlaufsfeld_2-2)"/><path d="M1061,365.22q0,29.46-15.17,52.94t-44.42,36.78q-29.25,13.29-69.34,13.29-48.08,0-79.31-18.17a105.47,105.47,0,0,1-36-34.89q-13.86-21.81-13.85-42.42a28.29,28.29,0,0,1,8.31-20.49q8.31-8.53,21.15-8.53A25,25,0,0,1,850,350.37q7.2,6.66,12.3,19.72A131.37,131.37,0,0,0,875.69,396q7.2,10.41,20.27,17.17t34.34,6.75q29.24,0,47.52-13.62t18.27-34q0-16.17-9.86-26.25t-25.47-15.4q-15.62-5.32-41.76-11.3-35-8.19-58.59-19.16T823,270.29q-13.85-18.93-13.85-47.07,0-26.81,14.62-47.63t42.32-32q27.69-11.19,65.12-11.19,29.91,0,51.73,7.42t36.22,19.72q14.4,12.28,21.05,25.81t6.64,26.36a31.12,31.12,0,0,1-8.31,21.15,26.47,26.47,0,0,1-20.71,9.42q-11.29,0-17.17-5.65t-12.73-18.5q-8.86-18.37-21.27-28.69t-39.88-10.3q-25.47,0-41.09,11.19T870,217.24a27.2,27.2,0,0,0,5.32,16.83A44.74,44.74,0,0,0,890,246.26a98.29,98.29,0,0,0,18.83,8q9.53,2.88,31.46,8.42A495.16,495.16,0,0,1,990,276.83q22.26,7.76,37.88,18.83a77.48,77.48,0,0,1,24.37,28Q1061,340.63,1061,365.22Z" transform="translate(-139 -132.39)" style="fill:url(#Neues_Verlaufsfeld_2-3)"/></svg>