<svg id="Ebene_1" data-name="Ebene 1" xmlns="http://www.w3.org/2000/svg" xmlns:xlink="http://www.w3.org/1999/xlink" viewBox="0 0 340.94 111.04"><defs><linearGradient id="Unbenannter_Verlauf_369" x1="478.63" y1="358.6" x2="478.63" y2="239.89" gradientUnits="userSpaceOnUse"><stop offset="0" stop-color="#b129f0"/><stop offset="0.05" stop-color="#ac29f6"/><stop offset="0.16" stop-color="#a729fd"/><stop offset="0.48" stop-color="#a629ff"/><stop offset="0.68" stop-color="#a427fd"/><stop offset="0.78" stop-color="#9c22f5"/><stop offset="0.87" stop-color="#8f1ae7"/><stop offset="0.94" stop-color="#7c0dd4"/><stop offset="1" stop-color="#6800bf"/></linearGradient><linearGradient id="Unbenannter_Verlauf_370" x1="580.69" y1="359.13" x2="580.69" y2="239.12" gradientUnits="userSpaceOnUse"><stop offset="0" stop-color="#b129f0"/><stop offset="0.05" stop-color="#ac29f6"/><stop offset="0.16" stop-color="#a729fd"/><stop offset="0.48" stop-color="#a629ff"/><stop offset="0.61" stop-color="#a226fb"/><stop offset="0.74" stop-color="#961fef"/><stop offset="0.87" stop-color="#8312db"/><stop offset="1" stop-color="#6800bf"/></linearGradient><linearGradient id="Unbenannter_Verlauf_365" x1="651.55" y1="358.08" x2="651.55" y2="235.99" gradientUnits="userSpaceOnUse"><stop offset="0" stop-color="#b129f0"/><stop offset="0.04" stop-color="#af29f3"/><stop offset="0.22" stop-color="#a829fc"/><stop offset="0.48" stop-color="#a629ff"/><stop offset="0.63" stop-color="#9920f1"/><stop offset="0.91" stop-color="#7509cd"/><stop offset="1" stop-color="#6800bf"/></linearGradient><linearGradient id="Unbenannter_Verlauf_368" x1="731.97" y1="360.43" x2="731.97" y2="239.12" gradientUnits="userSpaceOnUse"><stop offset="0" stop-color="#b129f0"/><stop offset="0.04" stop-color="#af29f3"/><stop offset="0.22" stop-color="#a829fc"/><stop offset="0.48" stop-color="#a629ff"/><stop offset="1" stop-color="#6800bf"/></linearGradient></defs><path d="M521.29,317.76a31.53,31.53,0,0,1-5,17.51,33.36,33.36,0,0,1-14.68,12.16q-9.68,4.4-22.93,4.39-15.89,0-26.22-6a34.94,34.94,0,0,1-11.9-11.54q-4.57-7.21-4.58-14a9.51,9.51,0,0,1,9.74-9.59,8.26,8.26,0,0,1,5.83,2.2,17.22,17.22,0,0,1,4.06,6.52,44.07,44.07,0,0,0,4.43,8.56,17.91,17.91,0,0,0,6.71,5.68q4.32,2.24,11.35,2.24,9.66,0,15.71-4.51t6-11.24a11.89,11.89,0,0,0-3.26-8.68,21,21,0,0,0-8.42-5.09q-5.16-1.75-13.81-3.74A101.41,101.41,0,0,1,455,296.27a31.29,31.29,0,0,1-12.38-9.89Q438,280.13,438,270.82a26.76,26.76,0,0,1,4.84-15.75,30.38,30.38,0,0,1,14-10.58q9.15-3.7,21.53-3.7a53.43,53.43,0,0,1,17.1,2.45,36.3,36.3,0,0,1,12,6.52,27.34,27.34,0,0,1,7,8.53A19.76,19.76,0,0,1,516.6,267a10.27,10.27,0,0,1-2.74,7,8.75,8.75,0,0,1-6.85,3.11,7.9,7.9,0,0,1-5.68-1.86,25.36,25.36,0,0,1-4.21-6.12,27.74,27.74,0,0,0-7-9.48q-4.11-3.4-13.18-3.41-8.43,0-13.59,3.7t-5.16,8.9a9,9,0,0,0,1.75,5.56,14.79,14.79,0,0,0,4.84,4,31.8,31.8,0,0,0,6.22,2.64q3.15.94,10.4,2.78a163.92,163.92,0,0,1,16.45,4.69,49.76,49.76,0,0,1,12.52,6.23A25.67,25.67,0,0,1,518.4,304,29.66,29.66,0,0,1,521.29,317.76Z" transform="translate(-435.96 -240.79)" style="fill:url(#Unbenannter_Verlauf_369)"/><path d="M581.42,308.17H561.5v30.4q0,6.51-3.08,9.88a10.84,10.84,0,0,1-15.67,0q-3-3.33-3-9.78V256q0-7.19,3.29-10.26t10.48-3.07h27.9q12.38,0,19.05,1.9a28.31,28.31,0,0,1,11.38,6.08,27.39,27.39,0,0,1,7.29,10.4,36.62,36.62,0,0,1,2.49,13.84q0,16.41-10.11,24.87T581.42,308.17ZM576.15,259H561.5v32.81h14.65A43.51,43.51,0,0,0,589,290.15a15,15,0,0,0,7.88-5.27,15.78,15.78,0,0,0,2.71-9.6,16.29,16.29,0,0,0-4.18-11.57Q590.73,259,576.15,259Z" transform="translate(-435.96 -240.79)" style="fill:url(#Unbenannter_Verlauf_370)"/><path d="M640.67,338.57V254q0-6.58,3-9.89a10,10,0,0,1,7.76-3.29,10.35,10.35,0,0,1,7.95,3.26q3,3.25,3,9.92v84.6q0,6.66-3,10a10.34,10.34,0,0,1-7.95,3.29,10,10,0,0,1-7.73-3.33Q640.68,345.16,640.67,338.57Z" transform="translate(-435.96 -240.79)" style="fill:url(#Unbenannter_Verlauf_365)"/><path d="M715.09,253.82l41.82,63.29V253.24q0-6.23,2.67-9.34a9,9,0,0,1,7.22-3.11,9.3,9.3,0,0,1,7.4,3.11q2.7,3.12,2.71,9.34v84.45q0,14.13-11.72,14.13a15.6,15.6,0,0,1-5.28-.84,13.4,13.4,0,0,1-4.39-2.67,25.68,25.68,0,0,1-3.81-4.29c-1.17-1.63-2.34-3.31-3.51-5l-40.8-62.54v62.91q0,6.15-2.86,9.3a10.14,10.14,0,0,1-14.72,0q-2.79-3.19-2.78-9.27V256.53a23.46,23.46,0,0,1,1.17-8.27,11.85,11.85,0,0,1,4.61-5.39,12.57,12.57,0,0,1,7-2.08,11.4,11.4,0,0,1,8.68,3.51,26.82,26.82,0,0,1,3.22,4.18Q713.33,251,715.09,253.82Z" transform="translate(-435.96 -240.79)" style="fill:url(#Unbenannter_Verlauf_368)"/></svg>