<svg id="Ebene_1" data-name="Ebene 1" xmlns="http://www.w3.org/2000/svg" xmlns:xlink="http://www.w3.org/1999/xlink" viewBox="0 0 195.87 37.01"><defs><linearGradient id="Unbenannter_Verlauf_18" x1="95.95" y1="91.54" x2="304.15" y2="91.54" gradientUnits="userSpaceOnUse"><stop offset="0.01" stop-color="#6100bf"/><stop offset="0.08" stop-color="#730bd0"/><stop offset="0.2" stop-color="#8f1bea"/><stop offset="0.32" stop-color="#a025f9"/><stop offset="0.4" stop-color="#a629ff"/><stop offset="0.78" stop-color="#a829fe"/><stop offset="0.91" stop-color="#af29f9"/><stop offset="1" stop-color="#b929f1"/></linearGradient></defs><path d="M102.5,93.89h.44v-2.4c0-.64,0-1.15,0-1.52a2.26,2.26,0,0,1,.29-.94,1.87,1.87,0,0,1,.67-.67,1.93,1.93,0,0,1,1-.25,2,2,0,0,1,1.38.57,1.67,1.67,0,0,1,.52.93,8.65,8.65,0,0,1,.11,1.56v2.72h1.47a1.87,1.87,0,0,1,1.29.41,1.31,1.31,0,0,1,.45,1,1.16,1.16,0,0,1-.64,1.13,4.18,4.18,0,0,1-1.82.32h-.75v7.35a10.5,10.5,0,0,0,.07,1.44,1.41,1.41,0,0,0,.35.82,1.2,1.2,0,0,0,.93.32,5.17,5.17,0,0,0,.95-.12,4.48,4.48,0,0,1,.94-.13,1.2,1.2,0,0,1,.87.39,1.3,1.3,0,0,1,.39,1,1.6,1.6,0,0,1-1.06,1.48,7.14,7.14,0,0,1-3,.51,5.22,5.22,0,0,1-2.84-.63,2.91,2.91,0,0,1-1.27-1.74,11.88,11.88,0,0,1-.3-3V96.78h-.53a1.9,1.9,0,0,1-1.31-.41,1.33,1.33,0,0,1-.46-1,1.27,1.27,0,0,1,.48-1A2.08,2.08,0,0,1,102.5,93.89ZM116.81,90V96a8.51,8.51,0,0,1,1.49-1.39,5.15,5.15,0,0,1,1.6-.77,6.8,6.8,0,0,1,1.89-.26,5.57,5.57,0,0,1,2.71.65,4.63,4.63,0,0,1,1.85,1.87,4.69,4.69,0,0,1,.57,1.6,12.54,12.54,0,0,1,.15,2v7.66a2.69,2.69,0,0,1-.55,1.82,1.86,1.86,0,0,1-1.46.61q-2,0-2-2.43v-6.75a6.24,6.24,0,0,0-.57-3,2.26,2.26,0,0,0-2.17-1,3.2,3.2,0,0,0-1.92.61,3.62,3.62,0,0,0-1.28,1.66,10.45,10.45,0,0,0-.33,3.18v5.29a2.7,2.7,0,0,1-.53,1.81,1.87,1.87,0,0,1-1.49.62q-2,0-2-2.43V90a2.79,2.79,0,0,1,.52-1.83,1.85,1.85,0,0,1,1.46-.61,1.87,1.87,0,0,1,1.49.62A2.67,2.67,0,0,1,116.81,90Zm25.38,12.62h-7.83a5.37,5.37,0,0,0,.55,2.4,3.68,3.68,0,0,0,3.38,2.1,4.89,4.89,0,0,0,1.31-.17,4.12,4.12,0,0,0,1.15-.53,8,8,0,0,0,1-.77c.32-.27.72-.64,1.22-1.11a1.36,1.36,0,0,1,.88-.26,1.49,1.49,0,0,1,1,.33,1.24,1.24,0,0,1,.38,1,2.62,2.62,0,0,1-.43,1.26,5,5,0,0,1-1.28,1.4,7.34,7.34,0,0,1-2.15,1.1,9.39,9.39,0,0,1-3,.44,8,8,0,0,1-6-2.2,8.19,8.19,0,0,1-2.13-6,10,10,0,0,1,.52-3.29,7.36,7.36,0,0,1,1.54-2.6,6.85,6.85,0,0,1,2.49-1.66,8.86,8.86,0,0,1,3.28-.58,7.73,7.73,0,0,1,4,1,6.52,6.52,0,0,1,2.52,2.56,6.78,6.78,0,0,1,.83,3.19,2,2,0,0,1-.86,2A5.52,5.52,0,0,1,142.19,102.65Zm-7.83-2.27h7.25a4.81,4.81,0,0,0-1.1-3.07,3.31,3.31,0,0,0-2.53-1,3.19,3.19,0,0,0-2.45,1A5.14,5.14,0,0,0,134.36,100.38Zm38.57-6.25h-2.54v11.5a4.76,4.76,0,0,1-1,3.34,3.39,3.39,0,0,1-2.61,1.07,3.33,3.33,0,0,1-2.69-1.12,5,5,0,0,1-1-3.29V78.09a3.81,3.81,0,0,1,4.45-4.45h11.79a35.34,35.34,0,0,1,4.17.21,10.66,10.66,0,0,1,3.13.84,9.28,9.28,0,0,1,3,2,9,9,0,0,1,2,3.06,10.2,10.2,0,0,1,.67,3.7,8.94,8.94,0,0,1-2.26,6.4,12.9,12.9,0,0,1-6.84,3.39,13.5,13.5,0,0,1,3.68,3,30.36,30.36,0,0,1,3.14,4.26,31,31,0,0,1,2.15,4.08,8.08,8.08,0,0,1,.77,2.5,2.55,2.55,0,0,1-.45,1.4,3.22,3.22,0,0,1-1.24,1.1,3.85,3.85,0,0,1-1.8.4,3.57,3.57,0,0,1-2.06-.57A5.6,5.6,0,0,1,186,108c-.4-.59-.94-1.45-1.63-2.59l-2.9-4.83a25.83,25.83,0,0,0-2.8-4.06,6.9,6.9,0,0,0-2.5-1.9A8.65,8.65,0,0,0,172.93,94.13Zm4.15-15h-6.69v9.84h6.5a18.24,18.24,0,0,0,4.39-.45A5.2,5.2,0,0,0,184,86.94a4.41,4.41,0,0,0,.94-3,4.51,4.51,0,0,0-2.85-4.33A15.45,15.45,0,0,0,177.08,79.09Zm25,.75a3.51,3.51,0,0,1-2.38-.85,3.32,3.32,0,0,1,0-4.75,3.54,3.54,0,0,1,4.65-.08,2.94,2.94,0,0,1,1,2.41,3.06,3.06,0,0,1-1,2.41A3.37,3.37,0,0,1,202.06,79.84Zm3.29,6.89V106a4.27,4.27,0,0,1-.95,3,3.16,3.16,0,0,1-2.42,1,3,3,0,0,1-2.38-1,4.46,4.46,0,0,1-.91-3V86.92a4.26,4.26,0,0,1,.91-3A3.07,3.07,0,0,1,202,83a3.18,3.18,0,0,1,2.42,1A3.83,3.83,0,0,1,205.35,86.73Zm7.26-3.2h.73v-4c0-1.08,0-1.92.08-2.53a3.77,3.77,0,0,1,.48-1.57A3,3,0,0,1,215,74.31a3.23,3.23,0,0,1,1.64-.42,3.3,3.3,0,0,1,2.29,1,2.78,2.78,0,0,1,.87,1.55A14.34,14.34,0,0,1,220,79v4.54h2.44a3.18,3.18,0,0,1,2.17.67,2.23,2.23,0,0,1,.74,1.72,1.91,1.91,0,0,1-1.06,1.88,6.86,6.86,0,0,1-3,.54H220V100.6a20.49,20.49,0,0,0,.11,2.4,2.5,2.5,0,0,0,.59,1.37,2,2,0,0,0,1.55.52,9,9,0,0,0,1.59-.2,8,8,0,0,1,1.56-.21,2,2,0,0,1,1.45.65,2.16,2.16,0,0,1,.65,1.59,2.68,2.68,0,0,1-1.76,2.47,11.88,11.88,0,0,1-5.05.85,8.82,8.82,0,0,1-4.74-1,4.83,4.83,0,0,1-2.11-2.91,19.45,19.45,0,0,1-.5-5V88.34h-.88a3.22,3.22,0,0,1-2.2-.68,2.27,2.27,0,0,1-.76-1.74,2.16,2.16,0,0,1,.8-1.72A3.53,3.53,0,0,1,212.61,83.53Zm34.64,22.76v-.86a14.79,14.79,0,0,1-2.52,2.54,9.52,9.52,0,0,1-2.88,1.53,11.77,11.77,0,0,1-3.56.5,9.27,9.27,0,0,1-4.33-1,7.34,7.34,0,0,1-3-2.76,12.22,12.22,0,0,1-1.25-6.11V86.92a4.28,4.28,0,0,1,.91-3A3.07,3.07,0,0,1,233,83a3.16,3.16,0,0,1,2.44,1,4.21,4.21,0,0,1,.93,3V97.59a16.52,16.52,0,0,0,.39,3.9,4.67,4.67,0,0,0,1.4,2.46,4,4,0,0,0,2.75.89,5.56,5.56,0,0,0,3.17-1,5.77,5.77,0,0,0,2.18-2.61q.55-1.41.56-6.2V86.92a4.21,4.21,0,0,1,.93-3,3.11,3.11,0,0,1,2.41-1,3.07,3.07,0,0,1,2.39,1,4.28,4.28,0,0,1,.91,3v19.32a4.08,4.08,0,0,1-.87,2.85,2.86,2.86,0,0,1-2.23,1,2.9,2.9,0,0,1-2.26-1A4,4,0,0,1,247.25,106.29Zm29.74,0a20.57,20.57,0,0,1-4.68,2.81,13,13,0,0,1-5.07.94,9.54,9.54,0,0,1-4.5-1,7.42,7.42,0,0,1-3-2.74,7.14,7.14,0,0,1-1.05-3.76,6.77,6.77,0,0,1,1.73-4.67,8.72,8.72,0,0,1,4.76-2.59l3.15-.65c1.68-.35,3.12-.66,4.31-.94s2.5-.64,3.9-1a7,7,0,0,0-1.07-3.87c-.62-.82-1.92-1.23-3.89-1.23a8.14,8.14,0,0,0-3.82.7,6.2,6.2,0,0,0-2.2,2.13q-.92,1.41-1.29,1.86a2.1,2.1,0,0,1-1.63.46,2.86,2.86,0,0,1-1.94-.72,2.37,2.37,0,0,1-.81-1.85,5.6,5.6,0,0,1,1.24-3.41A8.9,8.9,0,0,1,265,84a17.44,17.44,0,0,1,6.57-1.07,18.66,18.66,0,0,1,6.91,1,6.46,6.46,0,0,1,3.55,3.29,14.37,14.37,0,0,1,1,6c0,1.57,0,2.89,0,4s0,2.31,0,3.64a13.55,13.55,0,0,0,.62,3.92,12.25,12.25,0,0,1,.63,2.62,2.46,2.46,0,0,1-1,1.87,3.23,3.23,0,0,1-2.18.84,3,3,0,0,1-2-1A13.76,13.76,0,0,1,277,106.29Zm-.44-9.65a33.63,33.63,0,0,1-4.26,1.14c-1.87.4-3.16.69-3.87.88a5.18,5.18,0,0,0-2.05,1.09,2.81,2.81,0,0,0-1,2.29,3.36,3.36,0,0,0,1.15,2.57,4.21,4.21,0,0,0,3,1.06,7.79,7.79,0,0,0,3.65-.86,5.77,5.77,0,0,0,2.45-2.24,10.17,10.17,0,0,0,.91-5Zm13.3,9.35V77.09a4.51,4.51,0,0,1,.89-3,3,3,0,0,1,2.41-1,3.14,3.14,0,0,1,2.44,1,4.35,4.35,0,0,1,.93,3V106a4.36,4.36,0,0,1-.94,3,3.16,3.16,0,0,1-2.43,1,3,3,0,0,1-2.38-1A4.46,4.46,0,0,1,289.85,106Z" transform="translate(-100.64 -73.03)" style="fill:url(#Unbenannter_Verlauf_18)"/></svg>