<svg xmlns="http://www.w3.org/2000/svg" xmlns:xlink="http://www.w3.org/1999/xlink" viewBox="0 0 1635.8 1447.06"><defs><linearGradient id="Neues_Verlaufsfeld_2" x1="840" y1="1583.38" x2="840" y2="136.32" gradientUnits="userSpaceOnUse"><stop offset="0" stop-color="#b129f0"/><stop offset="0.04" stop-color="#af29f3"/><stop offset="0.25" stop-color="#a829fc"/><stop offset="0.55" stop-color="#a629ff"/><stop offset="0.67" stop-color="#a327fc"/><stop offset="0.75" stop-color="#9b21f3"/><stop offset="0.82" stop-color="#8c18e4"/><stop offset="0.89" stop-color="#770acf"/><stop offset="0.92" stop-color="#6800bf"/></linearGradient><linearGradient id="Neues_Verlaufsfeld_2-2" x1="840" y1="1531.48" x2="840" y2="207.03" xlink:href="#Neues_Verlaufsfeld_2"/></defs><g id="Ebene_2" data-name="Ebene 2"><path d="M561.11,136.32h5a35.49,35.49,0,0,1-3.5,12,305.74,305.74,0,0,1-18,28l-51,69a229.59,229.59,0,0,1-24.5,26.5q30.94-13.83,63-26,26.26-31.69,67-40a273,273,0,0,1,103-1,248.65,248.65,0,0,1,30,8.5,5.79,5.79,0,0,1-2,5.5,148.08,148.08,0,0,1-22,9q-47.31,13.2-95,25a226.41,226.41,0,0,1-78,2,608,608,0,0,0-62,28q68.14-5.79,126,31a45.91,45.91,0,0,1,16,16,28.46,28.46,0,0,1-11,3,1063.4,1063.4,0,0,1-108-3,143.22,143.22,0,0,1-65-22.5,558.06,558.06,0,0,0-116,97.5,191.11,191.11,0,0,1,84-16.5,169,169,0,0,1,59,8.5l8,4c1.75.72,2.59,1.89,2.5,3.5a85.07,85.07,0,0,1-25.5,13.5q-48.72,16.43-98,31a176.76,176.76,0,0,1-68,2,491.26,491.26,0,0,0-69.5,125.5,172.12,172.12,0,0,1,29.5-24.5,242.87,242.87,0,0,1,93-33,83.24,83.24,0,0,1,27,1.5,2,2,0,0,1,.5,3,124.89,124.89,0,0,1-22.5,23.5l-80,62a171.59,171.59,0,0,1-70,29.5,522.11,522.11,0,0,0-19.5,137,171.44,171.44,0,0,1,32-49,264,264,0,0,1,60.5-48.5,82.85,82.85,0,0,1,37-11.5,61.31,61.31,0,0,1-9.5,26q-31.62,51.75-64,103a185.73,185.73,0,0,1-53.5,51,495.22,495.22,0,0,0,26.5,130q9.21-72.42,56-128a279.12,279.12,0,0,1,20.5-19.5q6.67-4,13.5-7.5a88.48,88.48,0,0,1-1,35q-12.62,61.08-26,122a223,223,0,0,1-32.5,69,521.45,521.45,0,0,0,66.5,103q-17.4-84.77,20-163a82.45,82.45,0,0,1,15.5-19,56.55,56.55,0,0,1,8.5,23q10,68,20,136a230.87,230.87,0,0,1-5.5,83.5,63.94,63.94,0,0,0,9,10,636,636,0,0,0,84.5,61.5q-50.73-82.15-35-178a44.68,44.68,0,0,1,6.5-14,57.22,57.22,0,0,1,15.5,18q34.23,65.48,70,130a275.13,275.13,0,0,1,25.5,85.5,537.13,537.13,0,0,0,116,33,198.21,198.21,0,0,1-53.5-46.5,274.08,274.08,0,0,1-48-89,96.91,96.91,0,0,1-4-48,79.08,79.08,0,0,1,22.5,13.5q50.86,47.42,104,92a317.1,317.1,0,0,1,52.5,59.5,216.44,216.44,0,0,1,14.5,27.5,219.45,219.45,0,0,1,110,22.5,234.18,234.18,0,0,1,111-23,207.93,207.93,0,0,1,34.5-54q12.2-13.71,25.5-26.5,54.92-45.73,107-95a94.66,94.66,0,0,1,26-16.5,10.28,10.28,0,0,1,1.5,4,148.88,148.88,0,0,1-15,70,281.1,281.1,0,0,1-64.5,90.5,158.24,158.24,0,0,1-28,19,531.74,531.74,0,0,0,117-33,244.67,244.67,0,0,1,21.5-77.5q35.1-64.62,69-130a198.44,198.44,0,0,1,13-20,30.13,30.13,0,0,1,7-6,36.08,36.08,0,0,1,7,15q13.8,84.73-26,161a129.37,129.37,0,0,1-10.5,15.5,4.61,4.61,0,0,0,4-1,541.47,541.47,0,0,0,91-69.5,141.16,141.16,0,0,1-6.5-35,390.67,390.67,0,0,1,1-52q10.31-71.62,22-143a38.73,38.73,0,0,1,6-13,83.73,83.73,0,0,1,22,32q29.16,73,14,150a594.44,594.44,0,0,0,66.5-103,213.67,213.67,0,0,1-34.5-75l-24-114a95.83,95.83,0,0,1-2-37,93.77,93.77,0,0,1,32,24q48.35,56.2,58.5,130a569.12,569.12,0,0,0,28-127,228.38,228.38,0,0,1-53.5-51q-37-57-71-116a55.7,55.7,0,0,1-4.5-15,45.27,45.27,0,0,1,14,1.5,222.09,222.09,0,0,1,78.5,52.5,245,245,0,0,1,29,37,136.16,136.16,0,0,1,9,18,474.73,474.73,0,0,0-8-84q-5-26.69-11.5-53a171.14,171.14,0,0,1-72-30.5q-48.48-36.14-94.5-75.5a41.39,41.39,0,0,1-7.5-11,19.82,19.82,0,0,1,8-2.5q71,.82,128,43a159.42,159.42,0,0,1,15.5,14.5,536.68,536.68,0,0,0-69.5-125.5,176,176,0,0,1-68-2q-57.33-16.11-113-37-5.37-3.06-10.5-6.5a2.49,2.49,0,0,1,0-3,112.79,112.79,0,0,1,49.5-13.5,239.8,239.8,0,0,1,80,7q12.3,4.26,24,9a558.06,558.06,0,0,0-116-97.5,136,136,0,0,1-58,21.5,974.56,974.56,0,0,1-115,4,20.27,20.27,0,0,1-11-3.5,57.26,57.26,0,0,1,17-16.5q57.57-36,125-30a646.75,646.75,0,0,0-62-28,226.4,226.4,0,0,1-78-2q-46.17-11.38-92-24a115.06,115.06,0,0,1-25-10,5.77,5.77,0,0,1-2-5.5,204.44,204.44,0,0,1,65-12.5,239.51,239.51,0,0,1,88,11,101.59,101.59,0,0,1,46,34q32.51,12.27,64,26a226.1,226.1,0,0,1-29.5-32.5q-31.6-41.7-61-85a96.44,96.44,0,0,1-7.5-17,6.54,6.54,0,0,1,6-.5,152.21,152.21,0,0,1,42,20,290.35,290.35,0,0,1,77.5,73.5,103.5,103.5,0,0,1,17,67,568.83,568.83,0,0,1,121,98q-25-71.35-44-145a62.06,62.06,0,0,1-1.5-26,100.72,100.72,0,0,1,27.5,23,318.74,318.74,0,0,1,63,114,121.56,121.56,0,0,1,0,65,83.94,83.94,0,0,1-6.5,13.5,572.16,572.16,0,0,1,76.5,130.5q1.5-78.08,8-156a149.91,149.91,0,0,1,4-24,31.61,31.61,0,0,1,3.5-7,98.63,98.63,0,0,1,18.5,30q33.18,81.45,19,168a113,113,0,0,1-30.5,52.5,584,584,0,0,1,23.5,142.5q5.58-16.67,12-33,24.09-53.25,47-107a231.47,231.47,0,0,1,19-36l5-5a38.43,38.43,0,0,1,5,13q11.27,90.13-24,174a144,144,0,0,1-42.5,54.5,92.92,92.92,0,0,1-23,11.5,643.56,643.56,0,0,1-25.5,135l17-20,112.5-116.5a85.58,85.58,0,0,1,16-10.5,75.7,75.7,0,0,1-2.5,33q-26.77,91.33-94.5,157.5-34.48,29.49-80,33.5a583.12,583.12,0,0,1-67,108.5q88.47-42.48,177-86a43.27,43.27,0,0,1,21-4,199.14,199.14,0,0,1-33.5,54.5,375,375,0,0,1-130.5,97.5,145.87,145.87,0,0,1-79,9,85.19,85.19,0,0,1-15-4.5,578.47,578.47,0,0,1-100,75.5q98.6-9,197-21a102.43,102.43,0,0,1,33,2,107.78,107.78,0,0,1-28,27q-87.93,58.89-194,65.5a160.16,160.16,0,0,1-76-18.5,118.11,118.11,0,0,1-18-13.5,583.57,583.57,0,0,1-126,32.5q54,11.39,107,27,53,12.69,106,25a98,98,0,0,1,33.5,13.5,1.25,1.25,0,0,1,0,2,177.94,177.94,0,0,1-61.5,21.5,427.62,427.62,0,0,1-158-2q-60.31-10.77-101.5-55.5a110.25,110.25,0,0,1-15.5-25.5,189.94,189.94,0,0,0-89,10q66.21,48.08,88.5,127.5a350.4,350.4,0,0,1,11.5,55,4.27,4.27,0,0,1-4.5-2,300.29,300.29,0,0,0-61-128,194.64,194.64,0,0,0-56-43,199.24,199.24,0,0,0-84,82,331.94,331.94,0,0,0-33.5,91h-4q8.48-83.25,60.5-148a194,194,0,0,1,39.5-34.5,201.28,201.28,0,0,0-90-10.5,102.34,102.34,0,0,1-30,41.5,195.4,195.4,0,0,1-91,41,415,415,0,0,1-179-5,143,143,0,0,1-36-15.5c-1.21-.77-1.21-1.61,0-2.5a103.38,103.38,0,0,1,30-12q92.16-20.41,183-46,16.88-4.08,34-7a570.53,570.53,0,0,1-126-32.5q-41.14,33.14-94.5,32a389.46,389.46,0,0,1-170.5-50.5,331.21,331.21,0,0,1-35-24,131.65,131.65,0,0,1-16-17.5,12.7,12.7,0,0,1,7-2.5l12.5-.5q105.22,11.52,210.5,21.5a602.88,602.88,0,0,1-100.5-75.5,119.57,119.57,0,0,1-71.5,2.5,192.22,192.22,0,0,1-48-19,389.88,389.88,0,0,1-117.5-101.5,149.41,149.41,0,0,1-20.5-38,8.72,8.72,0,0,1,7-.5,161.93,161.93,0,0,1,30,11q79.94,40.73,160,78.5a621.88,621.88,0,0,1-67-108.5q-47.88-3.69-83-36Q51.43,957,25.61,866.32a119.94,119.94,0,0,1-3.5-30,34.23,34.23,0,0,1,14,7.5q41.8,40.3,80.5,83.5a534.92,534.92,0,0,1,53,57,653,653,0,0,1-26-135q-42.89-19.38-63-62-40.65-90.48-24-188c.66-1.33,1.33-2.67,2-4a47.27,47.27,0,0,1,7,7,243.93,243.93,0,0,1,14,26q24.67,58.35,51,116,5.79,14.88,11,30a624.63,624.63,0,0,1,24.5-141q-32.94-33-35.5-80a339.11,339.11,0,0,1,22-136,108.71,108.71,0,0,1,20-34,63.78,63.78,0,0,1,7,25q6.81,80.37,9,161a592.23,592.23,0,0,1,75-128q-3.45-10.33-7-21a140.42,140.42,0,0,1,11-86,304.39,304.39,0,0,1,68.5-101.5,84.39,84.39,0,0,1,12.5-8.5,20.73,20.73,0,0,1,1,12,348.86,348.86,0,0,1-12,50q-15.19,54.81-34,108a617.23,617.23,0,0,1,120.5-97q-2.58-41.51,22.5-75a333.54,333.54,0,0,1,83.5-72.5A157.76,157.76,0,0,1,561.11,136.32Z" transform="translate(-22.1 -136.32)" style="fill-rule:evenodd;opacity:0.977999985218048;isolation:isolate;fill:url(#Neues_Verlaufsfeld_2)"/></g><g id="Ebene_3" data-name="Ebene 3"><path d="M840.34,548.15c-158.07,0-422.4,115.88-507.47,290.69,120.36,198.31,362,292,507.47,292s386.43-93.7,506.79-292C1245.53,670.59,1006.36,548.15,840.34,548.15Zm-41.47,517.28C666.11,1045.2,493.26,952.81,411.38,838.84,501.48,718,630,645.73,798.87,613.26,762.52,798.26,761.42,847,798.87,1065.43Zm82.26,0c37.45-218.47,36.35-267.17,0-452.17,157.78,29.19,297.7,116.5,388.46,226.24C1171.19,961.4,1033.44,1041.92,881.13,1065.43Z" transform="translate(-22.1 -136.32)" style="fill-rule:evenodd;opacity:0.978999972343445;isolation:isolate;fill:url(#Neues_Verlaufsfeld_2-2)"/></g></svg>